<?xml version="1.0" standalone="no"?>
<!DOCTYPE svg PUBLIC "-//W3C//DTD SVG 20010904//EN"
 "http://www.w3.org/TR/2001/REC-SVG-20010904/DTD/svg10.dtd">
<svg version="1.0" xmlns="http://www.w3.org/2000/svg"
 width="1024.000000pt" height="1024.000000pt" viewBox="0 0 1024.000000 1024.000000"
 preserveAspectRatio="xMidYMid meet">
<metadata>
Created by potrace 1.14, written by Peter Selinger 2001-2017
</metadata>
<g transform="translate(0.000000,1024.000000) scale(0.100000,-0.100000)"
fill="#000000" stroke="none">
<path d="M0 6948 c1 -2952 2 -3291 16 -3273 9 11 48 68 87 128 40 59 125 179
189 267 65 88 118 164 118 169 0 5 3 11 7 13 5 2 39 50 77 108 37 58 77 116
87 130 11 14 31 43 47 65 15 22 29 42 32 45 8 7 204 303 209 315 9 21 91 144
102 150 5 4 14 17 20 28 5 12 32 56 59 97 27 41 54 84 59 95 13 28 106 142
138 169 45 37 69 46 121 46 85 0 139 -48 357 -315 44 -54 88 -107 97 -117 10
-10 18 -20 18 -22 0 -2 15 -19 33 -38 17 -18 68 -75 112 -127 44 -52 103 -119
132 -150 28 -31 68 -76 90 -101 35 -41 88 -101 167 -190 17 -19 65 -76 106
-125 41 -50 113 -131 160 -180 126 -133 274 -294 312 -340 18 -21 83 -93 144
-160 60 -66 126 -138 145 -160 19 -21 61 -69 94 -105 33 -36 80 -89 105 -119
25 -29 50 -59 55 -65 6 -6 69 -78 140 -161 198 -230 352 -395 368 -395 5 0 30
18 54 41 42 38 45 40 67 25 26 -16 61 -12 88 12 21 18 128 177 128 191 0 5 3
11 8 13 7 3 146 218 176 273 9 17 28 48 41 70 14 22 28 47 32 55 4 8 42 73 86
144 43 71 83 138 88 150 5 11 19 38 31 58 13 20 56 92 97 160 41 68 81 132 90
143 9 11 27 40 41 65 13 25 26 47 30 50 7 6 124 192 159 253 13 23 54 87 90
142 37 55 75 117 84 137 10 21 23 38 29 38 6 0 9 3 6 6 -4 3 11 31 33 61 21
31 39 62 39 69 0 7 7 19 15 27 8 8 22 28 32 45 10 16 31 50 46 73 16 24 57 91
92 149 35 58 68 110 72 115 4 6 17 26 27 45 10 19 26 44 36 55 9 11 36 53 61
94 24 41 54 91 66 110 13 20 26 43 30 51 14 27 67 115 73 120 3 3 13 22 22 42
10 21 30 57 45 80 15 24 38 63 51 88 14 25 30 52 36 60 7 8 19 31 29 50 19 38
69 111 125 179 73 90 174 95 257 14 41 -40 137 -182 175 -258 11 -22 24 -47
30 -55 11 -17 85 -141 110 -185 41 -70 150 -251 157 -260 14 -16 73 -115 73
-121 0 -3 13 -24 29 -47 16 -23 46 -74 66 -112 21 -39 47 -81 59 -95 12 -14
44 -58 70 -97 27 -40 52 -70 57 -67 5 3 6 -2 3 -10 -3 -9 -1 -16 6 -16 6 0 18
-7 26 -15 20 -20 62 -23 136 -11 40 6 54 15 94 59 25 28 60 72 77 97 17 25 65
89 107 142 41 53 88 118 104 145 45 74 120 187 133 201 7 7 13 20 13 28 0 8 5
14 10 14 6 0 10 5 10 11 0 7 16 31 35 55 19 23 35 45 35 47 0 6 64 103 93 141
12 16 22 32 22 35 1 11 39 66 52 74 7 4 13 13 13 19 0 12 147 237 187 287 16
18 37 48 48 65 44 70 189 294 217 336 43 63 108 130 138 142 37 15 105 11 142
-8 18 -9 67 -42 108 -74 94 -72 131 -91 186 -95 40 -3 48 0 81 33 32 33 154
212 257 377 20 33 76 122 124 198 48 76 128 203 177 281 117 187 146 230 156
234 5 2 9 579 9 1283 l0 1279 -5120 0 -5120 0 0 -3292z"/>
<path d="M10075 7049 c-88 -137 -178 -277 -199 -311 -22 -35 -63 -99 -91 -143
-28 -44 -69 -109 -90 -145 -152 -256 -197 -302 -296 -302 -56 1 -98 20 -153
72 -100 94 -123 109 -176 116 -76 11 -134 -51 -336 -360 -10 -16 -27 -41 -36
-55 -10 -14 -21 -33 -25 -41 -3 -8 -9 -17 -13 -20 -9 -7 -58 -80 -148 -220
-45 -69 -90 -138 -102 -155 -11 -16 -35 -52 -52 -80 -68 -109 -91 -144 -137
-200 -4 -6 -10 -15 -12 -20 -2 -6 -27 -43 -54 -84 -28 -40 -72 -109 -100 -152
-27 -43 -80 -123 -117 -176 -91 -132 -86 -125 -161 -238 -36 -55 -76 -110 -89
-122 -26 -25 -88 -53 -115 -53 -41 0 -94 23 -126 53 -32 31 -123 156 -136 186
-6 16 -59 103 -139 229 -23 37 -48 81 -56 97 -8 17 -27 48 -43 70 -15 22 -35
54 -43 70 -8 17 -26 48 -40 70 -15 22 -32 55 -39 73 -8 17 -17 32 -21 32 -4 0
-13 14 -20 30 -7 17 -16 30 -19 30 -4 0 -25 33 -46 73 -21 39 -53 93 -72 120
-19 26 -32 47 -29 47 6 0 -71 118 -84 130 -3 3 -18 21 -34 40 -16 19 -30 34
-32 33 -2 -2 -20 6 -39 17 -36 20 -63 28 -35 10 9 -6 10 -10 3 -10 -6 0 -15 5
-18 11 -4 5 -17 9 -28 7 -12 -1 -27 1 -33 4 -16 11 -74 -43 -116 -106 -73
-110 -106 -162 -139 -221 -18 -33 -48 -81 -67 -107 -19 -27 -31 -48 -28 -48 3
0 -3 -9 -14 -20 -11 -11 -20 -25 -20 -31 0 -6 -13 -30 -30 -54 -16 -24 -30
-51 -30 -59 0 -9 -4 -16 -9 -16 -5 0 -11 -8 -15 -17 -6 -16 -56 -93 -116 -178
-49 -69 -130 -198 -130 -206 0 -5 -4 -9 -10 -9 -5 0 -10 -5 -10 -11 0 -7 -21
-44 -47 -83 -54 -81 -72 -111 -109 -181 -15 -27 -37 -64 -50 -81 -13 -17 -24
-35 -24 -40 0 -5 -20 -36 -45 -69 -24 -33 -52 -76 -62 -95 -10 -19 -22 -39
-26 -45 -31 -40 -197 -302 -197 -312 0 -7 -4 -13 -10 -13 -5 0 -10 -7 -10 -15
0 -8 -4 -15 -10 -15 -5 0 -10 -5 -10 -11 0 -6 -25 -46 -55 -89 -30 -43 -55
-83 -55 -89 0 -6 -3 -11 -8 -11 -4 0 -12 -9 -17 -19 -6 -11 -32 -55 -59 -98
-26 -43 -57 -93 -67 -111 -11 -18 -62 -102 -114 -187 -52 -85 -95 -159 -95
-164 0 -6 -9 -20 -20 -31 -11 -11 -18 -20 -15 -20 3 0 -7 -19 -23 -42 -16 -24
-57 -92 -91 -153 -71 -126 -65 -115 -128 -220 -26 -43 -50 -84 -52 -89 -2 -5
-15 -20 -27 -33 -13 -13 -24 -28 -24 -32 0 -14 -74 -58 -118 -72 -94 -28 -126
-3 -437 346 -88 99 -185 207 -215 240 -87 96 -141 157 -195 220 -42 50 -239
269 -255 285 -3 3 -43 48 -89 100 -178 202 -221 250 -366 409 -132 146 -239
263 -525 581 -42 47 -100 114 -129 150 -30 36 -61 72 -70 81 -9 8 -59 62 -111
118 -214 231 -281 293 -295 271 -5 -7 -11 -8 -19 -1 -7 6 -26 7 -49 1 -20 -4
-37 -5 -37 -1 0 4 -16 5 -35 3 -25 -3 -44 -15 -66 -41 -16 -20 -41 -48 -55
-64 -13 -15 -24 -30 -24 -34 0 -3 -16 -25 -35 -49 -19 -23 -35 -47 -35 -52 0
-5 -6 -12 -14 -15 -7 -3 -40 -45 -72 -94 -33 -48 -65 -95 -73 -103 -8 -8 -31
-40 -51 -71 -41 -64 -101 -142 -112 -147 -5 -2 -8 -8 -8 -13 0 -6 -9 -19 -20
-31 -11 -12 -20 -28 -20 -35 0 -7 -4 -13 -10 -13 -5 0 -10 -4 -10 -10 0 -5
-35 -58 -78 -117 -43 -59 -130 -187 -195 -283 -65 -96 -142 -209 -172 -250
-31 -41 -58 -82 -62 -90 -4 -8 -11 -19 -15 -25 -5 -5 -29 -37 -54 -70 -25 -33
-59 -78 -77 -99 -18 -22 -37 -47 -44 -55 -9 -12 -12 -189 -13 -751 l0 -735
1727 3 c951 1 3051 2 4668 2 3560 -1 3838 0 3842 4 2 1 2 1229 1 2728 l-3
2726 -160 -249z"/>
<path d="M8886 1623 c-1 -1 -2001 -3 -4444 -4 l-4442 -2 0 -809 0 -808 4720 0
4720 0 0 80 0 80 320 0 320 0 0 -80 0 -80 80 0 80 0 0 810 0 810 -257 1 c-576
3 -1095 4 -1097 2z"/>
</g>
</svg>
